# xmcd
#
# Track frame offsets:
#	150
#	12962
#	28084
#	41038
#	57789
#	72165
#	85458
#	101912
#	121139
#	136261
#	146766
#	163941
#
# Disc length: 2343 seconds
#
# Revision: 0
# Processed by: cddbd v1.5.2PL0 Copyright (c) Steve Scherf et al.
# Submitted via: EasyCDDAExtractor 11.1.0.1
#
DISCID=aa09250c
DTITLE=Lene Holme - My country favorites
DYEAR=2010
DGENRE=country
TTITLE0=Other side of the hill
TTITLE1=Help me make it through the night
TTITLE2=Therre's a kind of hush
TTITLE3=My broken souvenirs
TTITLE4=Rosaegarden
TTITLE5=Funny face
TTITLE6=Blame it on your heart
TTITLE7=Blanket on the ground
TTITLE8=It's my life
TTITLE9=Silver threads and golden needles
TTITLE10=Banks of the Ohio
TTITLE11=Tuesday night in Nashville
EXTD=
EXTT0=
EXTT1=
EXTT2=
EXTT3=
EXTT4=
EXTT5=
EXTT6=
EXTT7=
EXTT8=
EXTT9=
EXTT10=
EXTT11=
PLAYORDER=
